<svg width="64" height="64" xmlns="http://www.w3.org/2000/svg">
    <!-- Created with Method Draw - http://github.com/duopixel/Method-Draw/ -->

    <g id="Layer_1">
        <title>Layer 1</title>
        <g id="svg_5">
            <path fill="#ffffff" d="m30.03597,43.47511l-5.46668,0l0,-2.73334l5.46668,0l0,2.73334m6.15002,-2.73334l2.05001,0l0,2.73334l-5.46668,0l0,-2.73334l0.27333,0l-1.91334,-8.33669l-3.41668,0.82c-0.13667,0.68334 -0.41,1.23 -0.68334,1.77667c-1.23,2.05001 -3.82668,2.59667 -5.87668,1.36667c-2.05001,-1.23 -2.59667,-3.82668 -1.36667,-5.87668c1.23,-2.05001 3.82668,-2.59667 5.87668,-1.36667c0.54667,0.27333 0.95667,0.82 1.23,1.23l3.41668,-0.82l-0.82,-3.41668c-0.54667,-0.13667 -1.09334,-0.41 -1.64,-0.68334c-1.91334,-1.23 -2.59667,-3.82668 -1.36667,-5.87668c1.23,-2.05001 3.82668,-2.59667 5.87668,-1.36667c2.05001,1.23 2.59667,3.82668 1.36667,5.87668c-0.27333,0.54667 -0.82,0.95667 -1.23,1.23l3.69001,15.44337m-11.6167,-9.84002c-0.95667,-0.68334 -2.32334,-0.27333 -3.00667,0.68334c-0.68334,0.95667 -0.27333,2.32334 0.68334,2.87001c0.95667,0.68334 2.32334,0.41 3.00667,-0.68334c0.54667,-0.95667 0.27333,-2.32334 -0.68334,-2.87001m7.38002,-7.92669c0.68334,-0.95667 0.27333,-2.32334 -0.68334,-3.00667c-0.95667,-0.68334 -2.32334,-0.27333 -3.00667,0.68334c-0.54667,0.95667 -0.27333,2.32334 0.82,3.00667c0.95667,0.54667 2.32334,0.27333 2.87001,-0.68334m0.54667,7.24335c-0.27333,-0.13667 -0.54667,-0.13667 -0.68334,0.13667c-0.13667,0.27333 -0.13667,0.54667 0.13667,0.68334c0.27333,0.13667 0.54667,0.13667 0.68334,-0.13667c0.27333,-0.27333 0.13667,-0.54667 -0.13667,-0.68334m11.20669,-3.82668l-8.88336,2.05001l0.68334,3.00667l10.25003,-2.46001l0.68334,-0.95667l-2.73334,-1.64m2.73334,14.35004l-5.46668,0l0,2.73334l5.46668,0l0,-2.73334m-24.60006,0l-5.46668,0l0,2.73334l5.46668,0l0,-2.73334z" id="svg_4"/>
        </g>
    </g>
</svg>
